<svg xmlns="http://www.w3.org/2000/svg" xmlns:xlink="http://www.w3.org/1999/xlink" width="800" height="300" viewBox="0 0 800 300"><defs><clipPath id="a"><rect width="220" height="70.841" fill="#fff"/></clipPath></defs><g transform="translate(-280 -332)"><rect width="800" height="300" transform="translate(280 332)" fill="#fff"/><g transform="translate(0 9)"><g transform="translate(568 412)" clip-path="url(#a)"><path d="M3.492,69.842a17.46,17.46,0,0,0,17.46-17.46v17.46Zm17.46-33.175H34.919V55.874A13.967,13.967,0,0,1,20.952,69.841Z" fill="#02d365"/><path d="M6.984,62.857A6.984,6.984,0,1,0,0,55.873,6.984,6.984,0,0,0,6.984,62.857Z" fill="#02d365"/><path d="M61.111,70.841a15.678,15.678,0,0,1-7.859-1.994,14.054,14.054,0,0,1-5.515-5.538A16.958,16.958,0,0,1,45.768,55a16.977,16.977,0,0,1,2.02-8.31A15.234,15.234,0,0,1,53.412,41.1a17.14,17.14,0,0,1,15.834,0,14.841,14.841,0,0,1,5.624,5.594A16.4,16.4,0,0,1,76.89,55a16.423,16.423,0,0,1-2.075,8.307,14.822,14.822,0,0,1-5.678,5.538A16.3,16.3,0,0,1,61.111,70.841Zm0-6.757a7.763,7.763,0,0,0,3.931-1.052,7.059,7.059,0,0,0,2.894-3.046A10.808,10.808,0,0,0,69.028,55a9.572,9.572,0,0,0-2.239-6.757,7.528,7.528,0,0,0-5.569-2.326,7.206,7.206,0,0,0-5.46,2.326A9.572,9.572,0,0,0,53.521,55c0,2.935.71,5.151,2.184,6.7a6.875,6.875,0,0,0,5.406,2.382Z" fill="#333"/><path d="M90.158,44.423A11.2,11.2,0,0,1,94.035,40.6a10.355,10.355,0,0,1,5.4-1.385v8.141H97.42c-2.4,0-4.2.554-5.4,1.717-1.256,1.163-1.856,3.157-1.856,5.981V70.342H82.514V39.66h7.644Z" fill="#333"/><path d="M142.138,39.217a12.269,12.269,0,0,1,9.009,3.434c2.239,2.326,3.385,5.538,3.385,9.692v18h-7.648V53.4a7.84,7.84,0,0,0-1.8-5.538,6.414,6.414,0,0,0-4.914-1.883,6.618,6.618,0,0,0-4.969,1.883,7.84,7.84,0,0,0-1.8,5.538V70.342h-7.643V53.4a7.84,7.84,0,0,0-1.8-5.538,7.128,7.128,0,0,0-9.883,0,7.616,7.616,0,0,0-1.856,5.538V70.342h-7.646V39.66h7.644v3.711a10.013,10.013,0,0,1,3.822-3.046,11.783,11.783,0,0,1,5.078-1.108,13.227,13.227,0,0,1,6.334,1.5,11.006,11.006,0,0,1,4.313,4.373,10.744,10.744,0,0,1,4.313-4.264A12.107,12.107,0,0,1,142.138,39.217Z" fill="#333"/><path d="M165.672,36.006a4.451,4.451,0,0,1-3.331-1.329,4.373,4.373,0,0,1,0-6.424,4.451,4.451,0,0,1,3.331-1.329,4.663,4.663,0,0,1,3.385,1.329,4.507,4.507,0,0,1,0,6.424,4.663,4.663,0,0,1-3.385,1.329Zm3.767,3.655V70.343h-7.644V39.661Z" fill="#333"/><path d="M184.618,29.359h-7.644V70.342h7.644Z" fill="#333"/><path d="M210.064,70.342,199.8,57.272v13.07h-7.644V29.363H199.8V52.679l10.156-13.016h9.937L206.564,55.056,220,70.342Z" fill="#333"/><path d="M36.666,36.667H20.952V52.381A15.713,15.713,0,0,1,36.666,36.667ZM52.381,20.952H36.666A15.713,15.713,0,0,0,20.952,36.666H36.667A15.713,15.713,0,0,0,52.381,20.952Z" fill="#333" fill-rule="evenodd"/><path d="M17.46,17.46V34.92A17.46,17.46,0,0,1,34.92,17.46,17.461,17.461,0,0,0,41.6,16.131a17.461,17.461,0,0,0,5.665-3.785,17.46,17.46,0,0,0,3.785-5.665A17.46,17.46,0,0,0,52.381,0H34.92A17.46,17.46,0,0,0,17.46,17.46Z" fill="#333" fill-rule="evenodd"/></g><path d="M95.606,20.1h-8.97q.286,4.03,4,4.03a6.127,6.127,0,0,0,3.952-1.43l.806,1.846a6.6,6.6,0,0,1-2.184,1.2,8.186,8.186,0,0,1-2.652.442,6.51,6.51,0,0,1-4.8-1.742,6.473,6.473,0,0,1-1.755-4.81,7.523,7.523,0,0,1,.767-3.458,5.639,5.639,0,0,1,2.158-2.34A6.034,6.034,0,0,1,90.094,13a5.114,5.114,0,0,1,4.043,1.664,6.715,6.715,0,0,1,1.469,4.6Zm-5.46-5.174a3.153,3.153,0,0,0-2.405.949,4.51,4.51,0,0,0-1.079,2.717h6.682a4.346,4.346,0,0,0-.9-2.717A2.876,2.876,0,0,0,90.146,14.924Zm12.818,11.258a8.1,8.1,0,0,1-5.278-1.612l.806-1.9a7.226,7.226,0,0,0,4.55,1.508,3.656,3.656,0,0,0,1.95-.429,1.355,1.355,0,0,0,.676-1.209,1.33,1.33,0,0,0-.455-1.066,3.823,3.823,0,0,0-1.573-.65l-2.106-.468a5.047,5.047,0,0,1-2.548-1.274,3.08,3.08,0,0,1-.858-2.236,3.343,3.343,0,0,1,1.391-2.782A5.845,5.845,0,0,1,103.172,13a7.714,7.714,0,0,1,2.574.429,6.293,6.293,0,0,1,2.106,1.209l-.806,1.846A6.178,6.178,0,0,0,103.172,15a3.315,3.315,0,0,0-1.885.468,1.464,1.464,0,0,0-.689,1.274,1.378,1.378,0,0,0,.429,1.053,2.906,2.906,0,0,0,1.365.611l2.158.494a5.4,5.4,0,0,1,2.7,1.287,3.1,3.1,0,0,1,.858,2.275,3.174,3.174,0,0,1-1.391,2.717A6.311,6.311,0,0,1,102.964,26.182Zm12.532,0a8.1,8.1,0,0,1-5.278-1.612l.806-1.9a7.226,7.226,0,0,0,4.55,1.508,3.656,3.656,0,0,0,1.95-.429,1.355,1.355,0,0,0,.676-1.209,1.33,1.33,0,0,0-.455-1.066,3.823,3.823,0,0,0-1.573-.65l-2.106-.468a5.047,5.047,0,0,1-2.548-1.274,3.08,3.08,0,0,1-.858-2.236,3.343,3.343,0,0,1,1.391-2.782A5.845,5.845,0,0,1,115.7,13a7.714,7.714,0,0,1,2.574.429,6.293,6.293,0,0,1,2.106,1.209l-.806,1.846A6.178,6.178,0,0,0,115.7,15a3.315,3.315,0,0,0-1.885.468,1.464,1.464,0,0,0-.689,1.274,1.378,1.378,0,0,0,.429,1.053,2.906,2.906,0,0,0,1.365.611l2.158.494a5.4,5.4,0,0,1,2.7,1.287,3.1,3.1,0,0,1,.858,2.275,3.174,3.174,0,0,1-1.391,2.717A6.311,6.311,0,0,1,115.5,26.182ZM134.424,20.1h-8.97q.286,4.03,4,4.03a6.127,6.127,0,0,0,3.952-1.43l.806,1.846a6.6,6.6,0,0,1-2.184,1.2,8.186,8.186,0,0,1-2.652.442,6.51,6.51,0,0,1-4.8-1.742,6.473,6.473,0,0,1-1.755-4.81,7.523,7.523,0,0,1,.767-3.458,5.639,5.639,0,0,1,2.158-2.34A6.034,6.034,0,0,1,128.912,13a5.114,5.114,0,0,1,4.043,1.664,6.715,6.715,0,0,1,1.469,4.6Zm-5.46-5.174a3.153,3.153,0,0,0-2.4.949,4.51,4.51,0,0,0-1.079,2.717h6.682a4.345,4.345,0,0,0-.9-2.717A2.876,2.876,0,0,0,128.964,14.924ZM144.148,13q4.55,0,4.55,5.122V26h-2.626V18.252a3.625,3.625,0,0,0-.637-2.366,2.461,2.461,0,0,0-1.989-.754,3.4,3.4,0,0,0-2.548.988,3.639,3.639,0,0,0-.962,2.652V26H137.31V13.312h2.574V15.34a4.218,4.218,0,0,1,1.742-1.742A5.262,5.262,0,0,1,144.148,13Zm14.144,11.154a8.651,8.651,0,0,0,1.17-.078l-.13,2a8.549,8.549,0,0,1-1.352.1,5,5,0,0,1-3.679-1.209,4.735,4.735,0,0,1-1.209-3.5V15.34h-2.47V13.312h2.47V9.49h2.626v3.822H159.2V15.34h-3.484v6.032Q155.718,24.154,158.292,24.154ZM161.464,26V13.312h2.626V26Zm-.182-18.356H164.3v2.73h-3.016ZM173.06,13a5.052,5.052,0,0,1,3.783,1.274,5.374,5.374,0,0,1,1.235,3.874V26h-2.522V23.894a3.638,3.638,0,0,1-1.469,1.7,4.337,4.337,0,0,1-2.275.585,5.151,5.151,0,0,1-2.288-.507,3.93,3.93,0,0,1-1.625-1.417,3.671,3.671,0,0,1-.585-2.028,3.123,3.123,0,0,1,.715-2.171,4.264,4.264,0,0,1,2.366-1.131,23.766,23.766,0,0,1,4.537-.338h.6v-.754a3.012,3.012,0,0,0-.611-2.106,2.627,2.627,0,0,0-1.989-.65,8.186,8.186,0,0,0-4.316,1.326l-.78-1.846a8.591,8.591,0,0,1,2.457-1.131A9.709,9.709,0,0,1,173.06,13Zm-.78,11.232a3.057,3.057,0,0,0,2.34-.975,3.53,3.53,0,0,0,.91-2.509v-.676h-.468a20.256,20.256,0,0,0-3.12.182,3.061,3.061,0,0,0-1.56.611,1.591,1.591,0,0,0-.468,1.235,1.984,1.984,0,0,0,.663,1.521A2.414,2.414,0,0,0,172.28,24.232ZM181.666,26V7.67h2.626V26Zm18.72.182a6.645,6.645,0,0,1-3.341-.806,5.474,5.474,0,0,1-2.184-2.275,7.344,7.344,0,0,1-.767-3.445,7.377,7.377,0,0,1,.793-3.484,5.707,5.707,0,0,1,2.236-2.34A6.622,6.622,0,0,1,200.49,13a7.544,7.544,0,0,1,2.561.442,5.534,5.534,0,0,1,2.015,1.2l-.806,1.872a5.57,5.57,0,0,0-3.562-1.4,3.571,3.571,0,0,0-2.847,1.183,4.939,4.939,0,0,0-1.027,3.341,4.834,4.834,0,0,0,1.014,3.289,3.6,3.6,0,0,0,2.86,1.157,5.57,5.57,0,0,0,3.562-1.4l.806,1.9a5.916,5.916,0,0,1-2.08,1.183A7.942,7.942,0,0,1,200.386,26.182Zm12.506,0a6.537,6.537,0,0,1-3.289-.806,5.439,5.439,0,0,1-2.184-2.3,7.5,7.5,0,0,1-.767-3.471,7.563,7.563,0,0,1,.767-3.5,5.439,5.439,0,0,1,2.184-2.3,7.114,7.114,0,0,1,6.578,0,5.439,5.439,0,0,1,2.184,2.3,7.563,7.563,0,0,1,.767,3.5,7.5,7.5,0,0,1-.767,3.471,5.439,5.439,0,0,1-2.184,2.3A6.537,6.537,0,0,1,212.892,26.182Zm0-2.08a3.224,3.224,0,0,0,2.665-1.144,5.244,5.244,0,0,0,.923-3.354,5.2,5.2,0,0,0-.936-3.341,3.618,3.618,0,0,0-5.3,0A5.2,5.2,0,0,0,209.3,19.6a5.244,5.244,0,0,0,.923,3.354A3.224,3.224,0,0,0,212.892,24.1ZM236.6,13q4.264,0,4.264,5.122V26h-2.626V18.226a3.935,3.935,0,0,0-.559-2.353,2.117,2.117,0,0,0-1.807-.741,2.8,2.8,0,0,0-2.262.988,4.068,4.068,0,0,0-.832,2.7V26h-2.626V18.226a3.866,3.866,0,0,0-.572-2.353,2.124,2.124,0,0,0-1.794-.741,2.831,2.831,0,0,0-2.288.988,4.068,4.068,0,0,0-.832,2.7V26h-2.626V13.312h2.574v1.924a4.28,4.28,0,0,1,1.612-1.651A4.546,4.546,0,0,1,228.544,13a3.641,3.641,0,0,1,3.822,2.444,4.386,4.386,0,0,1,1.716-1.794A4.925,4.925,0,0,1,236.6,13Zm14.664,0a5.269,5.269,0,0,1,2.925.832,5.531,5.531,0,0,1,2,2.34,8.045,8.045,0,0,1,.715,3.484,7.933,7.933,0,0,1-.7,3.432,5.3,5.3,0,0,1-1.989,2.288,5.443,5.443,0,0,1-2.951.806,5.078,5.078,0,0,1-2.522-.611,4.023,4.023,0,0,1-1.664-1.755V30.68h-2.626V13.312h2.626v2.08a4.1,4.1,0,0,1,1.664-1.768A4.993,4.993,0,0,1,251.268,13Zm-.624,11.1a3.216,3.216,0,0,0,2.652-1.157,5.109,5.109,0,0,0,.936-3.289,5.272,5.272,0,0,0-.949-3.354,3.535,3.535,0,0,0-5.278-.026,5.263,5.263,0,0,0-.923,3.328,5.263,5.263,0,0,0,.923,3.328A3.164,3.164,0,0,0,250.644,24.1Zm14.69,2.08a6.537,6.537,0,0,1-3.289-.806,5.439,5.439,0,0,1-2.184-2.3,7.5,7.5,0,0,1-.767-3.471,7.563,7.563,0,0,1,.767-3.5,5.439,5.439,0,0,1,2.184-2.3,7.114,7.114,0,0,1,6.578,0,5.439,5.439,0,0,1,2.184,2.3,7.563,7.563,0,0,1,.767,3.5,7.5,7.5,0,0,1-.767,3.471,5.439,5.439,0,0,1-2.184,2.3A6.537,6.537,0,0,1,265.334,26.182Zm0-2.08A3.224,3.224,0,0,0,268,22.958a5.244,5.244,0,0,0,.923-3.354,5.2,5.2,0,0,0-.936-3.341,3.618,3.618,0,0,0-5.3,0,5.2,5.2,0,0,0-.936,3.341,5.244,5.244,0,0,0,.923,3.354A3.224,3.224,0,0,0,265.334,24.1ZM281.324,13q4.55,0,4.55,5.122V26h-2.626V18.252a3.625,3.625,0,0,0-.637-2.366,2.461,2.461,0,0,0-1.989-.754,3.4,3.4,0,0,0-2.548.988,3.639,3.639,0,0,0-.962,2.652V26h-2.626V13.312h2.574V15.34A4.218,4.218,0,0,1,278.8,13.6,5.262,5.262,0,0,1,281.324,13Zm19.006,7.1h-8.97q.286,4.03,4,4.03a6.127,6.127,0,0,0,3.952-1.43l.806,1.846a6.6,6.6,0,0,1-2.184,1.2,8.186,8.186,0,0,1-2.652.442,6.51,6.51,0,0,1-4.8-1.742,6.473,6.473,0,0,1-1.755-4.81,7.524,7.524,0,0,1,.767-3.458,5.639,5.639,0,0,1,2.158-2.34A6.034,6.034,0,0,1,294.818,13a5.114,5.114,0,0,1,4.043,1.664,6.715,6.715,0,0,1,1.469,4.6Zm-5.46-5.174a3.153,3.153,0,0,0-2.4.949,4.511,4.511,0,0,0-1.079,2.717h6.682a4.346,4.346,0,0,0-.9-2.717A2.876,2.876,0,0,0,294.87,14.924ZM310.054,13q4.55,0,4.55,5.122V26h-2.626V18.252a3.625,3.625,0,0,0-.637-2.366,2.461,2.461,0,0,0-1.989-.754,3.4,3.4,0,0,0-2.548.988,3.639,3.639,0,0,0-.962,2.652V26h-2.626V13.312h2.574V15.34a4.218,4.218,0,0,1,1.742-1.742A5.262,5.262,0,0,1,310.054,13ZM324.2,24.154a8.651,8.651,0,0,0,1.17-.078l-.13,2a8.549,8.549,0,0,1-1.352.1,5,5,0,0,1-3.679-1.209,4.735,4.735,0,0,1-1.209-3.5V15.34h-2.47V13.312H319V9.49h2.626v3.822h3.484V15.34h-3.484v6.032Q321.624,24.154,324.2,24.154Zm7.644,2.028a8.1,8.1,0,0,1-5.278-1.612l.806-1.9a7.225,7.225,0,0,0,4.55,1.508,3.656,3.656,0,0,0,1.95-.429,1.355,1.355,0,0,0,.676-1.209,1.33,1.33,0,0,0-.455-1.066,3.823,3.823,0,0,0-1.573-.65l-2.106-.468a5.047,5.047,0,0,1-2.548-1.274,3.08,3.08,0,0,1-.858-2.236,3.343,3.343,0,0,1,1.391-2.782A5.845,5.845,0,0,1,332.05,13a7.714,7.714,0,0,1,2.574.429,6.293,6.293,0,0,1,2.106,1.209l-.806,1.846A6.178,6.178,0,0,0,332.05,15a3.315,3.315,0,0,0-1.885.468,1.464,1.464,0,0,0-.689,1.274A1.378,1.378,0,0,0,329.9,17.8a2.906,2.906,0,0,0,1.365.611l2.158.494a5.4,5.4,0,0,1,2.7,1.287,3.1,3.1,0,0,1,.858,2.275,3.174,3.174,0,0,1-1.391,2.717A6.311,6.311,0,0,1,331.842,26.182Z" transform="translate(468 498.21)" fill="#2c3a41"/></g></g></svg>