<?xml version="1.0" encoding="UTF-8" standalone="no"?>
<!DOCTYPE svg PUBLIC "-//W3C//DTD SVG 1.1//EN" "http://www.w3.org/Graphics/SVG/1.1/DTD/svg11.dtd">
<svg width="100%" height="100%" viewBox="0 0 630 200" version="1.1" xmlns="http://www.w3.org/2000/svg" xmlns:xlink="http://www.w3.org/1999/xlink" xml:space="preserve" xmlns:serif="http://www.serif.com/" style="fill-rule:evenodd;clip-rule:evenodd;stroke-linejoin:round;stroke-miterlimit:2;">
    <g transform="matrix(1,0,0,1,-70,-200)">
        <g transform="matrix(1,0,0,1,-80,-50)">
            <g id="logo">
                <g id="isotipo">
                    <g>
                        <g transform="matrix(-1,0,0,-1,410,750)">
                            <path d="M249.998,300L200,300L200,349.998C200,336.738 205.268,324.021 214.644,314.644C224.021,305.268 236.738,300 249.998,300Z" style="fill:rgb(2,211,101);"/>
                        </g>
                        <g transform="matrix(0.799952,0,0,0.63332,50.0095,165.004)">
                            <path d="M249.998,300L200,300L200,450L200,450C213.26,450 225.978,443.346 235.354,431.503C244.73,419.659 249.998,403.596 249.998,386.847C249.998,345.847 249.998,300 249.998,300Z" style="fill:rgb(2,211,101);"/>
                        </g>
                        <g transform="matrix(0.888889,0,0,0.888889,30,45.1111)">
                            <circle cx="157.5" cy="410.5" r="22.5" style="fill:rgb(2,211,101);"/>
                        </g>
                    </g>
                    <g transform="matrix(1,0,0,1,80,50)">
                        <path d="M120,249.998L120,299.998C120,286.738 125.268,274.021 134.644,264.644C144.021,255.268 156.738,250 169.998,250L170,250C197.614,250 220,227.614 220,200L220,200L169.998,200C142.385,200 120,222.385 120,249.998Z" style="fill:rgb(51,51,51);"/>
                    </g>
                    <g transform="matrix(1,0,0,1,80,50)">
                        <path d="M174.998,305.002L130,305.002L130,350C130,338.066 134.741,326.62 143.18,318.181C151.618,309.743 163.064,305.002 174.998,305.002ZM220,260L174.998,260C150.146,260 130,280.146 130,304.998L130,305L175.002,305C199.854,305 220,284.854 220,260.002L220,260Z" style="fill:rgb(51,51,51);"/>
                    </g>
                </g>
                <g id="ormilk" transform="matrix(1,0,0,1,-99.2519,-18.4092)">
                    <g transform="matrix(156.357,0,0,156.357,375,467)">
                        <path d="M0.315,0.009C0.262,0.009 0.214,-0.003 0.171,-0.027C0.128,-0.05 0.095,-0.084 0.07,-0.127C0.046,-0.17 0.034,-0.22 0.034,-0.277C0.034,-0.334 0.047,-0.384 0.071,-0.427C0.097,-0.47 0.131,-0.504 0.174,-0.528C0.217,-0.551 0.266,-0.563 0.319,-0.563C0.372,-0.563 0.421,-0.551 0.464,-0.528C0.507,-0.504 0.542,-0.47 0.567,-0.427C0.592,-0.384 0.604,-0.334 0.604,-0.277C0.604,-0.22 0.591,-0.17 0.566,-0.127C0.54,-0.084 0.505,-0.05 0.462,-0.027C0.418,-0.003 0.369,0.009 0.315,0.009ZM0.315,-0.113C0.34,-0.113 0.364,-0.119 0.387,-0.132C0.409,-0.144 0.427,-0.162 0.44,-0.187C0.453,-0.212 0.46,-0.242 0.46,-0.277C0.46,-0.33 0.446,-0.37 0.419,-0.399C0.391,-0.427 0.357,-0.441 0.317,-0.441C0.277,-0.441 0.244,-0.427 0.217,-0.399C0.19,-0.37 0.176,-0.33 0.176,-0.277C0.176,-0.224 0.189,-0.184 0.216,-0.156C0.242,-0.127 0.275,-0.113 0.315,-0.113Z" style="fill:rgb(51,51,51);fill-rule:nonzero;"/>
                    </g>
                    <g transform="matrix(156.357,0,0,156.357,474.756,467)">
                        <path d="M0.209,-0.468C0.227,-0.497 0.251,-0.52 0.28,-0.537C0.309,-0.554 0.342,-0.562 0.379,-0.562L0.379,-0.415L0.342,-0.415C0.298,-0.415 0.265,-0.405 0.243,-0.384C0.22,-0.363 0.209,-0.327 0.209,-0.276L0.209,-0L0.069,-0L0.069,-0.554L0.209,-0.554L0.209,-0.468Z" style="fill:rgb(51,51,51);fill-rule:nonzero;"/>
                    </g>
                    <g transform="matrix(156.357,0,0,156.357,537.924,467)">
                        <path d="M0.757,-0.562C0.825,-0.562 0.88,-0.541 0.922,-0.5C0.963,-0.458 0.984,-0.4 0.984,-0.325L0.984,-0L0.844,-0L0.844,-0.306C0.844,-0.349 0.833,-0.383 0.811,-0.406C0.789,-0.429 0.759,-0.44 0.721,-0.44C0.683,-0.44 0.653,-0.429 0.63,-0.406C0.608,-0.383 0.597,-0.349 0.597,-0.306L0.597,-0L0.457,-0L0.457,-0.306C0.457,-0.349 0.446,-0.383 0.424,-0.406C0.402,-0.429 0.372,-0.44 0.334,-0.44C0.295,-0.44 0.265,-0.429 0.243,-0.406C0.22,-0.383 0.209,-0.349 0.209,-0.306L0.209,-0L0.069,-0L0.069,-0.554L0.209,-0.554L0.209,-0.487C0.227,-0.51 0.25,-0.529 0.279,-0.542C0.307,-0.555 0.338,-0.562 0.372,-0.562C0.415,-0.562 0.454,-0.553 0.488,-0.535C0.522,-0.516 0.548,-0.49 0.567,-0.456C0.585,-0.488 0.611,-0.514 0.646,-0.533C0.68,-0.552 0.717,-0.562 0.757,-0.562Z" style="fill:rgb(51,51,51);fill-rule:nonzero;"/>
                    </g>
                    <g transform="matrix(156.357,0,0,156.357,701.787,467)">
                        <path d="M0.14,-0.62C0.115,-0.62 0.095,-0.628 0.079,-0.644C0.062,-0.659 0.054,-0.679 0.054,-0.702C0.054,-0.725 0.062,-0.745 0.079,-0.76C0.095,-0.776 0.115,-0.784 0.14,-0.784C0.165,-0.784 0.185,-0.776 0.202,-0.76C0.218,-0.745 0.226,-0.725 0.226,-0.702C0.226,-0.679 0.218,-0.659 0.202,-0.644C0.185,-0.628 0.165,-0.62 0.14,-0.62ZM0.209,-0.554L0.209,-0L0.069,-0L0.069,-0.554L0.209,-0.554Z" style="fill:rgb(51,51,51);fill-rule:nonzero;"/>
                    </g>
                    <g transform="matrix(156.357,0,0,156.357,745.254,467)">
                        <rect x="0.069" y="-0.74" width="0.14" height="0.74" style="fill:rgb(51,51,51);fill-rule:nonzero;"/>
                    </g>
                    <g transform="matrix(156.357,0,0,156.357,788.721,467)">
                        <path d="M0.397,-0L0.209,-0.236L0.209,-0L0.069,-0L0.069,-0.74L0.209,-0.74L0.209,-0.319L0.395,-0.554L0.577,-0.554L0.333,-0.276L0.579,-0L0.397,-0Z" style="fill:rgb(51,51,51);fill-rule:nonzero;"/>
                    </g>
                </g>
            </g>
        </g>
    </g>
</svg>
