<?xml version="1.0" encoding="UTF-8" standalone="no"?>
<!DOCTYPE svg PUBLIC "-//W3C//DTD SVG 1.1//EN" "http://www.w3.org/Graphics/SVG/1.1/DTD/svg11.dtd">
<svg width="100%" height="100%" viewBox="0 0 383 119" version="1.1" xmlns="http://www.w3.org/2000/svg" xmlns:xlink="http://www.w3.org/1999/xlink" xml:space="preserve" xmlns:serif="http://www.serif.com/" style="fill-rule:evenodd;clip-rule:evenodd;stroke-linejoin:round;stroke-miterlimit:2;">
    <g transform="matrix(1,0,0,1,-430.25,-234.5)">
        <g>
            <g>
                <g transform="matrix(1,0,0,1,135,-17)">
                    <g transform="matrix(1,0,0,1,-275,136)">
                        <g transform="matrix(1.11111,0,0,1.17857,-66.6667,-8.85714)">
                            <rect x="600" y="135" width="9" height="42"/>
                        </g>
                        <path d="M635,125C621.202,125 610,136.202 610,150L610,174.56C603.815,168.291 600,159.709 600,150.25C600,131.071 615.683,115.5 635,115.5L635,125Z"/>
                        <g transform="matrix(-1,0,0,-1,1210,349.5)">
                            <path d="M635,125C621.202,125 610,136.202 610,150L610,174.56C603.815,168.291 600,159.709 600,150.25C600,131.071 615.683,115.5 635,115.5L635,125Z"/>
                        </g>
                    </g>
                    <g transform="matrix(1,0,0,1,-279.75,136)">
                        <circle cx="639.75" cy="120.25" r="4.75"/>
                    </g>
                    <g transform="matrix(1,0,0,1,-339.75,245)">
                        <circle cx="639.75" cy="120.25" r="4.75"/>
                    </g>
                    <g transform="matrix(1.11443,0,0,1,-346.09,146)">
                        <path d="M630,155C630,152.24 627.99,150 625.513,150L584.237,150C581.76,150 579.75,152.24 579.75,155C579.75,157.76 581.76,160 584.237,160L625.513,160C627.99,160 630,157.76 630,155Z"/>
                    </g>
                </g>
                <g transform="matrix(0.225284,0,0,0.225284,373.219,217.698)">
                    <g transform="matrix(474.656,0,0,474.656,520,520)">
                        <path d="M0.304,0.01C0.253,0.01 0.208,-0.001 0.169,-0.023C0.13,-0.045 0.101,-0.076 0.08,-0.117C0.059,-0.157 0.048,-0.203 0.048,-0.255C0.048,-0.307 0.059,-0.353 0.08,-0.394C0.101,-0.434 0.13,-0.465 0.169,-0.487C0.208,-0.509 0.253,-0.52 0.304,-0.52C0.355,-0.52 0.399,-0.509 0.438,-0.487C0.477,-0.465 0.507,-0.434 0.528,-0.394C0.549,-0.353 0.56,-0.307 0.56,-0.255C0.56,-0.203 0.549,-0.157 0.528,-0.117C0.507,-0.076 0.477,-0.045 0.438,-0.023C0.399,-0.001 0.355,0.01 0.304,0.01ZM0.304,-0.073C0.331,-0.073 0.358,-0.079 0.383,-0.092C0.407,-0.105 0.428,-0.125 0.445,-0.152C0.461,-0.179 0.469,-0.214 0.469,-0.256C0.469,-0.297 0.461,-0.332 0.445,-0.359C0.428,-0.386 0.407,-0.406 0.383,-0.419C0.358,-0.431 0.331,-0.437 0.304,-0.437C0.276,-0.437 0.25,-0.431 0.225,-0.419C0.2,-0.406 0.179,-0.386 0.163,-0.359C0.147,-0.332 0.139,-0.297 0.139,-0.256C0.139,-0.214 0.147,-0.179 0.163,-0.152C0.179,-0.125 0.2,-0.105 0.225,-0.092C0.25,-0.079 0.276,-0.073 0.304,-0.073Z" style="fill-rule:nonzero;"/>
                    </g>
                    <g transform="matrix(474.656,0,0,474.656,818.084,520)">
                        <path d="M0.124,0.005C0.111,0.005 0.101,0.001 0.092,-0.008C0.083,-0.017 0.079,-0.027 0.079,-0.04L0.079,-0.469C0.079,-0.482 0.083,-0.493 0.092,-0.501C0.101,-0.51 0.111,-0.515 0.124,-0.515C0.137,-0.515 0.148,-0.51 0.157,-0.501C0.166,-0.493 0.17,-0.482 0.17,-0.469L0.17,-0.426C0.217,-0.489 0.269,-0.52 0.327,-0.52L0.332,-0.52C0.345,-0.52 0.355,-0.516 0.364,-0.507C0.372,-0.498 0.376,-0.488 0.376,-0.475C0.376,-0.462 0.372,-0.452 0.363,-0.444C0.354,-0.436 0.343,-0.432 0.33,-0.432L0.325,-0.432C0.293,-0.432 0.264,-0.424 0.237,-0.408C0.21,-0.393 0.188,-0.371 0.17,-0.344L0.17,-0.04C0.17,-0.027 0.166,-0.017 0.157,-0.008C0.148,0.001 0.137,0.005 0.124,0.005Z" style="fill-rule:nonzero;"/>
                    </g>
                    <g transform="matrix(474.656,0,0,474.656,1009.37,520)">
                        <path d="M0.124,0.005C0.111,0.005 0.101,0.001 0.092,-0.008C0.083,-0.017 0.079,-0.027 0.079,-0.04L0.079,-0.469C0.079,-0.482 0.083,-0.493 0.092,-0.501C0.101,-0.51 0.111,-0.515 0.124,-0.515C0.137,-0.515 0.148,-0.51 0.157,-0.501C0.166,-0.493 0.17,-0.482 0.17,-0.469L0.17,-0.428C0.189,-0.455 0.211,-0.477 0.237,-0.494C0.264,-0.511 0.298,-0.52 0.34,-0.52C0.377,-0.52 0.409,-0.51 0.436,-0.49C0.463,-0.47 0.482,-0.446 0.493,-0.417C0.534,-0.486 0.596,-0.52 0.677,-0.52C0.714,-0.52 0.746,-0.511 0.771,-0.492C0.796,-0.473 0.814,-0.449 0.826,-0.42C0.838,-0.391 0.844,-0.36 0.844,-0.328L0.844,-0.04C0.844,-0.027 0.84,-0.017 0.831,-0.008C0.822,0.001 0.811,0.005 0.798,0.005C0.785,0.005 0.775,0.001 0.766,-0.008C0.757,-0.017 0.753,-0.027 0.753,-0.04L0.753,-0.31C0.753,-0.353 0.745,-0.385 0.73,-0.406C0.715,-0.426 0.688,-0.436 0.651,-0.436C0.617,-0.436 0.589,-0.427 0.567,-0.409C0.544,-0.392 0.524,-0.369 0.507,-0.34L0.507,-0.04C0.507,-0.027 0.502,-0.017 0.494,-0.008C0.485,0.001 0.474,0.005 0.461,0.005C0.448,0.005 0.438,0.001 0.429,-0.008C0.42,-0.017 0.416,-0.027 0.416,-0.04L0.416,-0.31C0.416,-0.353 0.408,-0.385 0.393,-0.406C0.378,-0.426 0.351,-0.436 0.314,-0.436C0.28,-0.436 0.252,-0.427 0.23,-0.409C0.207,-0.392 0.187,-0.369 0.17,-0.34L0.17,-0.04C0.17,-0.027 0.166,-0.017 0.157,-0.008C0.148,0.001 0.137,0.005 0.124,0.005Z" style="fill-rule:nonzero;"/>
                    </g>
                    <g transform="matrix(474.656,0,0,474.656,1454.6,520)">
                        <path d="M0.122,-0.614C0.108,-0.614 0.096,-0.619 0.086,-0.629C0.076,-0.639 0.071,-0.651 0.071,-0.665L0.071,-0.669C0.071,-0.683 0.076,-0.695 0.086,-0.705C0.096,-0.715 0.108,-0.72 0.122,-0.72L0.128,-0.72C0.142,-0.72 0.154,-0.715 0.164,-0.705C0.174,-0.695 0.179,-0.683 0.179,-0.669L0.179,-0.665C0.179,-0.651 0.174,-0.639 0.164,-0.629C0.154,-0.619 0.142,-0.614 0.128,-0.614L0.122,-0.614ZM0.124,0.005C0.111,0.005 0.101,0.001 0.092,-0.008C0.083,-0.017 0.079,-0.027 0.079,-0.04L0.079,-0.469C0.079,-0.482 0.083,-0.493 0.092,-0.501C0.101,-0.51 0.111,-0.515 0.124,-0.515C0.137,-0.515 0.148,-0.511 0.157,-0.502C0.166,-0.493 0.17,-0.482 0.17,-0.469L0.17,-0.04C0.17,-0.027 0.166,-0.017 0.157,-0.008C0.148,0.001 0.137,0.005 0.124,0.005Z" style="fill-rule:nonzero;"/>
                    </g>
                    <g transform="matrix(474.656,0,0,474.656,1582.28,520)">
                        <path d="M0.124,0.005C0.111,0.005 0.101,0.001 0.092,-0.008C0.083,-0.017 0.079,-0.027 0.079,-0.04L0.079,-0.689C0.079,-0.702 0.083,-0.713 0.092,-0.722C0.101,-0.731 0.111,-0.735 0.124,-0.735C0.137,-0.735 0.148,-0.731 0.157,-0.722C0.166,-0.713 0.17,-0.702 0.17,-0.689L0.17,-0.04C0.17,-0.027 0.166,-0.017 0.157,-0.008C0.148,0.001 0.137,0.005 0.124,0.005Z" style="fill-rule:nonzero;"/>
                    </g>
                    <g transform="matrix(474.656,0,0,474.656,1709.96,520)">
                        <path d="M0.124,0.005C0.111,0.005 0.101,0.001 0.092,-0.008C0.083,-0.017 0.079,-0.027 0.079,-0.04L0.079,-0.689C0.079,-0.702 0.083,-0.713 0.092,-0.722C0.101,-0.731 0.111,-0.735 0.124,-0.735C0.137,-0.735 0.148,-0.731 0.157,-0.722C0.166,-0.713 0.17,-0.702 0.17,-0.689L0.17,-0.28L0.408,-0.5C0.418,-0.509 0.428,-0.513 0.438,-0.513C0.453,-0.513 0.465,-0.509 0.471,-0.5C0.478,-0.491 0.482,-0.481 0.482,-0.469C0.482,-0.458 0.476,-0.446 0.465,-0.435L0.321,-0.306L0.502,-0.066C0.509,-0.057 0.512,-0.048 0.512,-0.039C0.512,-0.026 0.508,-0.015 0.499,-0.007C0.49,0.001 0.479,0.005 0.466,0.005C0.459,0.005 0.453,0.003 0.446,-0C0.439,-0.003 0.434,-0.008 0.429,-0.014L0.257,-0.248L0.17,-0.169L0.17,-0.04C0.17,-0.027 0.166,-0.017 0.157,-0.008C0.148,0.001 0.137,0.005 0.124,0.005Z" style="fill-rule:nonzero;"/>
                    </g>
                </g>
            </g>
        </g>
    </g>
</svg>
