<svg xmlns="http://www.w3.org/2000/svg" width="149.737" height="47.536" viewBox="0 0 149.737 47.536">
  <g id="logo" transform="translate(-150 -250)">
    <g id="isotipo" transform="translate(150 250)">
      <path id="Trazado_16" data-name="Trazado 16" d="M-1986,463.58a11.884,11.884,0,0,0,8.4-3.481,11.883,11.883,0,0,0,3.48-8.4V463.58Zm11.883-22.58h9.506v13.073a9.507,9.507,0,0,1-2.784,6.722,9.506,9.506,0,0,1-6.722,2.784Z" transform="translate(1988.377 -416.044)" fill="#02d365"/>
      <circle id="Elipse_3" data-name="Elipse 3" cx="4.754" cy="4.754" r="4.754" transform="translate(0 33.275)" fill="#02d365"/>
      <g id="black">
        <g id="ormilk" transform="translate(31.151 18.065)">
          <path id="Trazado_11" data-name="Trazado 11" d="M15.759-66.772a10.791,10.791,0,0,1-5.351-1.338,9.5,9.5,0,0,1-3.753-3.716A11.249,11.249,0,0,1,5.316-77.4a11.263,11.263,0,0,1,1.375-5.574,10.3,10.3,0,0,1,3.828-3.753,11.324,11.324,0,0,1,5.389-1.3,11.324,11.324,0,0,1,5.389,1.3,10.033,10.033,0,0,1,3.828,3.753A10.882,10.882,0,0,1,26.5-77.4a10.9,10.9,0,0,1-1.412,5.574,10.024,10.024,0,0,1-3.865,3.716A11.22,11.22,0,0,1,15.759-66.772Zm0-4.534a5.342,5.342,0,0,0,2.676-.706,4.766,4.766,0,0,0,1.97-2.044,7.168,7.168,0,0,0,.743-3.345,6.366,6.366,0,0,0-1.524-4.534A5.161,5.161,0,0,0,15.833-83.5a4.939,4.939,0,0,0-3.716,1.561A6.366,6.366,0,0,0,10.593-77.4a6.2,6.2,0,0,0,1.487,4.5A4.709,4.709,0,0,0,15.759-71.306Z" transform="translate(-5.316 96.242)" fill="#fff"/>
          <path id="Trazado_12" data-name="Trazado 12" d="M15.991-84.379a7.575,7.575,0,0,1,2.639-2.564,7.127,7.127,0,0,1,3.679-.929v5.463H20.934a5.142,5.142,0,0,0-3.679,1.152c-.855.78-1.264,2.118-1.264,4.014v10.257h-5.2V-87.575h5.2Z" transform="translate(14.222 96.123)" fill="#fff"/>
          <path id="Trazado_13" data-name="Trazado 13" d="M36.357-87.873a8.416,8.416,0,0,1,6.132,2.3,8.9,8.9,0,0,1,2.3,6.5v12.078h-5.2V-78.359a5.212,5.212,0,0,0-1.226-3.716,4.4,4.4,0,0,0-3.345-1.264,4.541,4.541,0,0,0-3.382,1.264,5.212,5.212,0,0,0-1.226,3.716v11.372h-5.2V-78.359a5.212,5.212,0,0,0-1.226-3.716,4.4,4.4,0,0,0-3.345-1.264,4.429,4.429,0,0,0-3.382,1.264,5.064,5.064,0,0,0-1.264,3.716v11.372h-5.2V-87.575h5.2v2.49a6.8,6.8,0,0,1,2.6-2.044,8.116,8.116,0,0,1,3.456-.743,9.107,9.107,0,0,1,4.311,1A7.437,7.437,0,0,1,29.3-83.933a7.264,7.264,0,0,1,2.936-2.862A8.332,8.332,0,0,1,36.357-87.873Z" transform="translate(29.236 96.123)" fill="#fff"/>
          <path id="Trazado_14" data-name="Trazado 14" d="M11.639-116.489a3.052,3.052,0,0,1-2.267-.892,2.762,2.762,0,0,1-.929-2.155,2.762,2.762,0,0,1,.929-2.155,3.052,3.052,0,0,1,2.267-.892,3.2,3.2,0,0,1,2.3.892,2.859,2.859,0,0,1,.892,2.155,2.859,2.859,0,0,1-.892,2.155A3.2,3.2,0,0,1,11.639-116.489Zm2.564,2.453v20.588H9v-20.588Z" transform="translate(69.97 122.584)" fill="#fff"/>
          <rect id="Rectángulo_25" data-name="Rectángulo 25" width="5.203" height="27.5" transform="translate(89.302 1.635)" fill="#fff"/>
          <path id="Trazado_15" data-name="Trazado 15" d="M22.978-88.2l-6.987-8.77v8.77h-5.2v-27.5h5.2v15.646l6.912-8.733h6.764L20.6-98.461,29.742-88.2Z" transform="translate(88.845 117.339)" fill="#fff"/>
        </g>
        <path id="Trazado_10" data-name="Trazado 10" d="M140.7,270.7H130v10.7a10.695,10.695,0,0,1,10.7-10.7Zm10.7-10.7H140.7A10.7,10.7,0,0,0,130,270.7h10.7a10.7,10.7,0,0,0,10.7-10.7Z" transform="translate(-115.74 -245.739)" fill="#fff" fill-rule="evenodd"/>
        <path id="Trazado_9" data-name="Trazado 9" d="M120,211.883v11.884a11.883,11.883,0,0,1,11.883-11.883h0A11.884,11.884,0,0,0,143.768,200H131.883A11.883,11.883,0,0,0,120,211.883Z" transform="translate(-108.116 -200)" fill="#fff" fill-rule="evenodd"/>
      </g>
    </g>
  </g>
</svg>
