<svg xmlns="http://www.w3.org/2000/svg" xmlns:xlink="http://www.w3.org/1999/xlink" width="680" height="248" viewBox="0 0 680 248">
  <defs>
    <clipPath id="clip-path">
      <rect id="Rectangle_234" data-name="Rectangle 234" width="16" height="16" fill="#fff"/>
    </clipPath>
  </defs>
  <g id="example-root-custom-property" transform="translate(-45 -68)">
    <rect id="Rectangle_236" data-name="Rectangle 236" width="680" height="248" transform="translate(45 68)" fill="#f1f9f9" opacity="0.9"/>
    <g id="Group_72" data-name="Group 72" transform="translate(70 0.068)">
      <g id="Group_69" data-name="Group 69" transform="translate(-7777 178.432)">
        <g id="Group_73" data-name="Group 73" transform="translate(-153.738 57.416)">
          <path id="Path_500" data-name="Path 500" d="M1046,129a8,8,0,0,1,8-8h88a8,8,0,0,1,8,8v24a8,8,0,0,1-8,8h-88a8,8,0,0,1-8-8Z" transform="translate(7083.5 -156.5)"/>
          <g id="Group_68" data-name="Group 68" transform="translate(8145.5 -23.5)" clip-path="url(#clip-path)">
            <path id="Path_501" data-name="Path 501" d="M1065.8,149a4,4,0,0,0,2.83-1.172,4.176,4.176,0,0,0,.87-1.3,4.017,4.017,0,0,0,.3-1.531v4Zm4-7.6h3.2v4.4a3.2,3.2,0,0,1-.94,2.263,3.215,3.215,0,0,1-2.26.937Z" transform="translate(-1062 -133)" fill="#02d365"/>
            <path id="Path_502" data-name="Path 502" d="M1066.6,147.4a1.6,1.6,0,1,0-1.6-1.6A1.6,1.6,0,0,0,1066.6,147.4Z" transform="translate(-1062 -133)" fill="#02d365"/>
            <path id="Path_503" data-name="Path 503" d="M1073.4,141.4h-3.6V145a3.616,3.616,0,0,1,.27-1.378,3.661,3.661,0,0,1,.78-1.168,3.751,3.751,0,0,1,1.17-.78,3.632,3.632,0,0,1,1.38-.274Zm3.6-3.6h-3.6a3.632,3.632,0,0,0-1.38.274,3.751,3.751,0,0,0-1.17.78,3.575,3.575,0,0,0-1.05,2.546h3.6a3.633,3.633,0,0,0,1.38-.274,3.738,3.738,0,0,0,1.17-.781,3.646,3.646,0,0,0,.78-1.168,3.605,3.605,0,0,0,.27-1.377Z" transform="translate(-1062 -133)" fill="#fff" fill-rule="evenodd"/>
            <path id="Path_504" data-name="Path 504" d="M1069,137v4a4,4,0,0,1,4-4h0a4.014,4.014,0,0,0,2.83-1.172,4.176,4.176,0,0,0,.87-1.3A4.019,4.019,0,0,0,1077,133h-4a4,4,0,0,0-4,4Z" transform="translate(-1062 -133)" fill="#fff" fill-rule="evenodd"/>
          </g>
          <path id="Path_505" data-name="Path 505" d="M1091.53,138.016a3.219,3.219,0,0,1,3.03,1.9,4.854,4.854,0,0,1,.43,2.112,5,5,0,0,1-.43,2.144,3.429,3.429,0,0,1-1.22,1.424,3.218,3.218,0,0,1-1.81.512,3.146,3.146,0,0,1-1.6-.4,2.6,2.6,0,0,1-1.02-1.136V146h-1.3V134.72h1.3v4.832a2.6,2.6,0,0,1,1.02-1.136A3.146,3.146,0,0,1,1091.53,138.016Zm-.25,7.024a2.121,2.121,0,0,0,1.76-.784,3.573,3.573,0,0,0,.62-2.224,3.375,3.375,0,0,0-.62-2.16,2.4,2.4,0,0,0-3.52,0,3.432,3.432,0,0,0-.61,2.192,3.5,3.5,0,0,0,.61,2.208A2.128,2.128,0,0,0,1091.28,145.04Zm12.21-6.832V146h-1.27v-1.328a2.482,2.482,0,0,1-1.04,1.072,2.966,2.966,0,0,1-1.49.368,2.7,2.7,0,0,1-2.09-.768,3.344,3.344,0,0,1-.71-2.3v-4.832h1.3v4.8a2.344,2.344,0,0,0,.42,1.536,1.629,1.629,0,0,0,1.31.48,2.185,2.185,0,0,0,1.65-.656,2.508,2.508,0,0,0,.62-1.76v-4.4Zm5.83,6.864a5.146,5.146,0,0,0,.7-.048l-.06,1.024a4.665,4.665,0,0,1-.8.064,2.517,2.517,0,0,1-2.83-2.784v-4.1h-1.52v-1.024h1.52V135.84h1.29v2.368h2.21v1.024h-2.21v4C1107.62,144.459,1108.19,145.072,1109.32,145.072Zm5.48,0a5.293,5.293,0,0,0,.71-.048l-.07,1.024a4.582,4.582,0,0,1-.8.064,2.528,2.528,0,0,1-2.83-2.784v-4.1h-1.52v-1.024h1.52V135.84h1.3v2.368h2.21v1.024h-2.21v4C1113.11,144.459,1113.67,145.072,1114.8,145.072Zm5.25,1.04a3.76,3.76,0,0,1-1.95-.5,3.363,3.363,0,0,1-1.3-1.408,4.856,4.856,0,0,1-.45-2.144,4.752,4.752,0,0,1,.45-2.128,3.341,3.341,0,0,1,1.3-1.424,4.081,4.081,0,0,1,3.9,0,3.223,3.223,0,0,1,1.3,1.424,4.624,4.624,0,0,1,.46,2.128,4.725,4.725,0,0,1-.46,2.144,3.242,3.242,0,0,1-1.3,1.408A3.76,3.76,0,0,1,1120.05,146.112Zm0-1.072a2.136,2.136,0,0,0,1.76-.752,3.429,3.429,0,0,0,.62-2.224,3.374,3.374,0,0,0-.62-2.192,2.368,2.368,0,0,0-3.52,0,3.373,3.373,0,0,0-.62,2.192,3.523,3.523,0,0,0,.6,2.208A2.168,2.168,0,0,0,1120.05,145.04Zm9.56-7.024c1.87,0,2.8,1.029,2.8,3.088V146h-1.29v-4.816a2.372,2.372,0,0,0-.44-1.584,1.639,1.639,0,0,0-1.34-.5,2.276,2.276,0,0,0-1.71.656,2.419,2.419,0,0,0-.64,1.776V146h-1.3v-7.792h1.28v1.28a2.641,2.641,0,0,1,1.07-1.088A3.191,3.191,0,0,1,1129.61,138.016Z" transform="translate(7083.5 -156.5)" fill="#fff"/>
        </g>
        <path id="Path_518" data-name="Path 518" d="M4.382-9.772H.966V0H4.382C7.5,0,9.534-1.918,9.534-4.872S7.5-9.772,4.382-9.772ZM2.926-1.666V-8.12H4.312a2.954,2.954,0,0,1,3.22,3.248,2.923,2.923,0,0,1-3.22,3.206Zm11.41-4.606a1.723,1.723,0,0,1,1.848,1.666H12.5A1.8,1.8,0,0,1,14.336-6.272Zm3.682,3.836H15.9A1.6,1.6,0,0,1,14.35-1.5,1.815,1.815,0,0,1,12.488-3.29h5.67a4.581,4.581,0,0,0,.056-.756,3.641,3.641,0,0,0-3.822-3.836,3.727,3.727,0,0,0-3.892,4,3.756,3.756,0,0,0,3.892,4A3.6,3.6,0,0,0,18.018-2.436ZM19.852,0H21.84V-6.146H23.2v-1.61H21.84v-.322c0-.868.322-1.176,1.274-1.148v-1.652c-2.184-.056-3.262.826-3.262,2.73v.392H18.97v1.61h.882Zm4.116-3.906c0,2.422,1.568,4.032,3.528,4.032a3.059,3.059,0,0,0,2.576-1.26V0h1.974V-7.756H30.072V-6.65A3.067,3.067,0,0,0,27.51-7.882C25.536-7.882,23.968-6.328,23.968-3.906Zm6.1.028A2.088,2.088,0,0,1,28.014-1.6a2.119,2.119,0,0,1-2.044-2.31A2.069,2.069,0,0,1,28.014-6.16,2.088,2.088,0,0,1,30.072-3.878ZM41.286-7.756H39.312v4.27c0,1.246-.672,1.918-1.736,1.918a1.678,1.678,0,0,1-1.722-1.918v-4.27h-1.96v4.55A2.989,2.989,0,0,0,37,.1,2.86,2.86,0,0,0,39.312-.98V0h1.974ZM43.218,0h1.96V-10.36h-1.96Zm4.2-2.408C47.418-.63,48.412,0,49.9,0h1.232V-1.652h-.91c-.616,0-.826-.224-.826-.742V-6.146h1.736v-1.61H49.392V-9.674H47.418v1.918h-.924v1.61h.924Z" transform="translate(7888 -12.5)" fill="#2c3a41"/>
        <path id="Path_517" data-name="Path 517" d="M.49-4.9A4.818,4.818,0,0,0,5.446.084,4.588,4.588,0,0,0,10.038-3.08H7.784A2.453,2.453,0,0,1,5.432-1.666,2.928,2.928,0,0,1,2.506-4.9,2.921,2.921,0,0,1,5.432-8.134a2.464,2.464,0,0,1,2.352,1.4h2.254A4.6,4.6,0,0,0,5.446-9.9,4.83,4.83,0,0,0,.49-4.9ZM19.04-7.756H17.066v4.27c0,1.246-.672,1.918-1.736,1.918a1.678,1.678,0,0,1-1.722-1.918v-4.27h-1.96v4.55A2.989,2.989,0,0,0,14.756.1,2.86,2.86,0,0,0,17.066-.98V0H19.04Zm7.952,5.544c-.056-2.842-4.354-1.96-4.354-3.374,0-.448.378-.742,1.106-.742a1.155,1.155,0,0,1,1.3,1.008h1.876C26.81-6.86,25.676-7.882,23.8-7.882c-1.918,0-3.066,1.036-3.066,2.324,0,2.842,4.382,1.96,4.382,3.346,0,.448-.42.8-1.19.8a1.287,1.287,0,0,1-1.4-1.036H20.552C20.636-1.008,21.994.126,23.94.126,25.83.126,26.992-.882,26.992-2.212Zm1.918-.2C28.91-.63,29.9,0,31.388,0H32.62V-1.652h-.91c-.616,0-.826-.224-.826-.742V-6.146H32.62v-1.61H30.884V-9.674H28.91v1.918h-.924v1.61h.924Zm12.614-1.47a3.833,3.833,0,0,0-3.99-4,3.833,3.833,0,0,0-3.99,4,3.8,3.8,0,0,0,3.934,4A3.878,3.878,0,0,0,41.524-3.878Zm-5.992,0a2.019,2.019,0,0,1,1.974-2.3,2.038,2.038,0,0,1,2,2.3,2.064,2.064,0,0,1-2.03,2.3C36.428-1.582,35.532-2.338,35.532-3.878ZM53.816,0h1.96V-4.55A3.017,3.017,0,0,0,52.6-7.868a3.071,3.071,0,0,0-2.66,1.484,2.969,2.969,0,0,0-2.73-1.484,2.824,2.824,0,0,0-2.282,1.05v-.938h-1.96V0h1.96V-4.284a1.657,1.657,0,0,1,1.75-1.876A1.65,1.65,0,0,1,48.4-4.284V0h1.96V-4.284A1.653,1.653,0,0,1,52.094-6.16a1.65,1.65,0,0,1,1.722,1.876Z" transform="translate(7888 46.916)" fill="#2c3a41"/>
      </g>
      <g id="Group_71" data-name="Group 71" transform="translate(-7934 102.432)">
        <path id="Path_506" data-name="Path 506" d="M910,129a8,8,0,0,1,8-8h88a8,8,0,0,1,8,8v24a8,8,0,0,1-8,8H918a8,8,0,0,1-8-8Z" transform="translate(7222.762 -80.5)" fill="#fff"/>
        <g id="Group_70" data-name="Group 70" transform="translate(8149.5 52.5)" clip-path="url(#clip-path)">
          <path id="Path_507" data-name="Path 507" d="M929.8,149a4,4,0,0,0,4-4v4Zm4-7.6H937v4.4a3.2,3.2,0,0,1-3.2,3.2Z" transform="translate(-926.326 -133)" fill="#02d365"/>
          <path id="Path_508" data-name="Path 508" d="M930.6,147.4a1.6,1.6,0,1,0-1.6-1.6A1.6,1.6,0,0,0,930.6,147.4Z" transform="translate(-926.326 -133)" fill="#02d365"/>
          <path id="Path_509" data-name="Path 509" d="M937.4,141.4h-3.6V145a3.6,3.6,0,0,1,3.6-3.6Zm3.6-3.6h-3.6a3.6,3.6,0,0,0-3.6,3.6h3.6a3.6,3.6,0,0,0,3.6-3.6Z" transform="translate(-926.326 -133)" fill="#333" fill-rule="evenodd"/>
          <path id="Path_510" data-name="Path 510" d="M933,137v4a4,4,0,0,1,4-4h0a4,4,0,0,0,4-4h-4a4,4,0,0,0-4,4Z" transform="translate(-926.326 -133)" fill="#333" fill-rule="evenodd"/>
        </g>
        <path id="Path_511" data-name="Path 511" d="M955.558,146.144a3.154,3.154,0,0,1-1.632-.416,2.678,2.678,0,0,1-1.04-1.136V146h-1.264V134.72h1.3v4.848a2.5,2.5,0,0,1,1.04-1.088,3.18,3.18,0,0,1,1.6-.4,3.255,3.255,0,0,1,1.808.5,3.076,3.076,0,0,1,1.2,1.392,4.895,4.895,0,0,1,.432,2.144,4.963,4.963,0,0,1-.432,2.144,3.194,3.194,0,0,1-1.2,1.392A3.255,3.255,0,0,1,955.558,146.144Zm-.272-1.04a2.178,2.178,0,0,0,1.744-.768,3.37,3.37,0,0,0,.656-2.224,3.33,3.33,0,0,0-.656-2.224,2.364,2.364,0,0,0-3.488,0,3.335,3.335,0,0,0-.656,2.224,3.375,3.375,0,0,0,.656,2.224A2.18,2.18,0,0,0,955.286,145.1Zm8.416,1.04q-2.8,0-2.8-3.088v-4.832h1.3v4.816a2.362,2.362,0,0,0,.416,1.536,1.689,1.689,0,0,0,1.344.5,2.13,2.13,0,0,0,1.616-.656,2.506,2.506,0,0,0,.624-1.776v-4.416h1.3V146H966.23v-1.312a2.624,2.624,0,0,1-1.04,1.088A2.99,2.99,0,0,1,963.7,146.144Zm9.337,0a2.729,2.729,0,0,1-2.064-.72,2.979,2.979,0,0,1-.688-2.112v-4.08h-1.52v-1.008h1.52V135.84h1.3v2.384h2.464v1.008h-2.464v3.952a2.186,2.186,0,0,0,.384,1.392,1.533,1.533,0,0,0,1.248.464,2.088,2.088,0,0,0,.512-.064c.171-.043.325-.085.464-.128l.224.992a2.616,2.616,0,0,1-.608.208A3.3,3.3,0,0,1,973.039,146.144Zm5.391,0a2.726,2.726,0,0,1-2.064-.72,2.979,2.979,0,0,1-.688-2.112v-4.08h-1.52v-1.008h1.52V135.84h1.3v2.384h2.464v1.008h-2.464v3.952a2.186,2.186,0,0,0,.384,1.392,1.533,1.533,0,0,0,1.248.464,2.093,2.093,0,0,0,.512-.064c.17-.043.325-.085.464-.128l.224.992a2.634,2.634,0,0,1-.608.208A3.294,3.294,0,0,1,978.43,146.144Zm5.627,0a3.77,3.77,0,0,1-1.968-.5,3.418,3.418,0,0,1-1.3-1.392,4.82,4.82,0,0,1-.448-2.144,4.717,4.717,0,0,1,.448-2.128,3.393,3.393,0,0,1,1.3-1.408,4.12,4.12,0,0,1,3.92,0,3.244,3.244,0,0,1,1.3,1.408,4.564,4.564,0,0,1,.464,2.128,4.663,4.663,0,0,1-.464,2.144,3.265,3.265,0,0,1-1.3,1.392A3.734,3.734,0,0,1,984.057,146.144Zm0-1.04a2.178,2.178,0,0,0,1.744-.768,3.37,3.37,0,0,0,.656-2.224,3.33,3.33,0,0,0-.656-2.224,2.382,2.382,0,0,0-3.5,0,3.4,3.4,0,0,0-.64,2.224,3.436,3.436,0,0,0,.64,2.224A2.2,2.2,0,0,0,984.057,145.1Zm5.659.9v-7.776h1.264v1.328a2.53,2.53,0,0,1,1.088-1.1,3.369,3.369,0,0,1,1.584-.368q2.768,0,2.768,3.072V146h-1.3v-4.768a2.384,2.384,0,0,0-.432-1.584,1.633,1.633,0,0,0-1.344-.512,2.253,2.253,0,0,0-1.712.672,2.447,2.447,0,0,0-.624,1.76V146Z" transform="translate(7222.796 -80.5)" fill="#2c3a41"/>
      </g>
    </g>
    <g id="Group_74" data-name="Group 74" transform="translate(0 2)">
      <path id="Path_512" data-name="Path 512" d="M.852,9.424H5.94V8.008H.852Zm7,0h5.088V8.008H7.848ZM15,13h1.7V7.732h1.164V6.352H16.7V6.076c0-.744.276-1.008,1.092-.984V3.676c-1.872-.048-2.8.708-2.8,2.34v.336h-.756v1.38H15Zm13.26,0h1.68V9.1a2.586,2.586,0,0,0-2.724-2.844,2.632,2.632,0,0,0-2.28,1.272A2.545,2.545,0,0,0,22.6,6.256a2.421,2.421,0,0,0-1.956.9v-.8H18.96V13h1.68V9.328a1.492,1.492,0,1,1,2.976,0V13H25.3V9.328a1.487,1.487,0,1,1,2.964,0Zm3.3-3.576h5.088V8.008H31.56Zm7,0h5.088V8.008H38.556Zm6.54.252a3.189,3.189,0,0,0,3.288,3.432,3.032,3.032,0,0,0,3.132-2.352H49.7a1.268,1.268,0,0,1-1.332.912c-.936,0-1.56-.7-1.56-1.992s.624-2,1.56-2A1.306,1.306,0,0,1,49.7,8.6h1.812a2.966,2.966,0,0,0-3.132-2.352A3.189,3.189,0,0,0,45.1,9.676Zm14.076,0a3.42,3.42,0,1,0-6.84,0A3.254,3.254,0,0,0,55.7,13.108,3.324,3.324,0,0,0,59.172,9.676Zm-5.136,0a1.722,1.722,0,1,1,3.408,0,1.77,1.77,0,0,1-1.74,1.968C54.8,11.644,54.036,11,54.036,9.676ZM60.408,13h1.68V4.12h-1.68Zm9.756-3.324a3.42,3.42,0,1,0-6.84,0A3.254,3.254,0,0,0,66.7,13.108,3.324,3.324,0,0,0,70.164,9.676Zm-5.136,0a1.722,1.722,0,1,1,3.408,0,1.77,1.77,0,0,1-1.74,1.968C65.8,11.644,65.028,11,65.028,9.676Zm8.052.012c0-1.284.6-1.668,1.6-1.668h.444V6.256a2.306,2.306,0,0,0-2.04,1.128V6.352H71.4V13h1.68Zm3.192-.264H81.36V8.008H76.272Zm8.652-2.1V4.12h-1.68V13h1.68v-.948a2.618,2.618,0,0,0,2.2,1.056,3.149,3.149,0,0,0,3.036-3.456A3.106,3.106,0,0,0,87.12,6.244,2.59,2.59,0,0,0,84.924,7.324ZM88.44,9.652a1.818,1.818,0,0,1-1.764,1.98,1.8,1.8,0,0,1-1.752-1.956A1.8,1.8,0,0,1,86.676,7.72,1.775,1.775,0,0,1,88.44,9.652Zm9.216-3.3H95.964v3.66c0,1.068-.576,1.644-1.488,1.644A1.438,1.438,0,0,1,93,10.012V6.352H91.32v3.9a2.562,2.562,0,0,0,2.664,2.832,2.452,2.452,0,0,0,1.98-.924V13h1.692Zm1.92,4.584c0,1.524.852,2.064,2.124,2.064h1.056V11.584h-.78c-.528,0-.708-.192-.708-.636V7.732h1.488V6.352h-1.488V4.708H99.576V6.352h-.792v1.38h.792Zm4.656,0c0,1.524.852,2.064,2.124,2.064h1.056V11.584h-.78c-.528,0-.708-.192-.708-.636V7.732h1.488V6.352h-1.488V4.708h-1.692V6.352h-.792v1.38h.792Zm10.812-1.26a3.42,3.42,0,1,0-6.84,0,3.254,3.254,0,0,0,3.372,3.432A3.324,3.324,0,0,0,115.044,9.676Zm-5.136,0a1.722,1.722,0,1,1,3.408,0,1.77,1.77,0,0,1-1.74,1.968C110.676,11.644,109.908,11,109.908,9.676ZM120.936,13h1.68V9.1a2.557,2.557,0,0,0-2.652-2.844,2.483,2.483,0,0,0-2,.924V6.352h-1.68V13h1.68V9.328a1.5,1.5,0,1,1,2.976,0Zm3.3-3.576h5.088V8.008h-5.088Zm12.876-2.988a2.565,2.565,0,0,0-2.76-2.388c-2.22,0-3.144,1.584-3.144,4.44,0,2.712.648,4.536,3.24,4.536a2.73,2.73,0,0,0,2.916-2.928,2.567,2.567,0,0,0-2.652-2.856,2.329,2.329,0,0,0-2.04,1.02c.024-2.016.528-2.832,1.62-2.832a1.15,1.15,0,0,1,1.26,1.008ZM134.328,8.62a1.345,1.345,0,0,1,1.44,1.512,1.334,1.334,0,0,1-1.4,1.464,1.4,1.4,0,0,1-1.536-1.524A1.389,1.389,0,0,1,134.328,8.62Zm4.368-.108c0,2.556.768,4.464,3.24,4.464s3.24-1.908,3.24-4.464c0-2.532-.768-4.428-3.24-4.428S138.7,5.98,138.7,8.512Zm4.824,0c0,1.56-.168,2.9-1.584,2.9s-1.584-1.344-1.584-2.9c0-1.5.168-2.868,1.584-2.868S143.52,7.012,143.52,8.512ZM148.4,12.1a1.033,1.033,0,1,0-1.02.984A.982.982,0,0,0,148.4,12.1Zm0-4.968a1.033,1.033,0,1,0-1.02.984A.982.982,0,0,0,148.4,7.132Zm5.928.192V4.12h-1.68V13h1.68v-.948a2.618,2.618,0,0,0,2.2,1.056,3.149,3.149,0,0,0,3.036-3.456,3.106,3.106,0,0,0-3.036-3.408A2.591,2.591,0,0,0,154.332,7.324Zm3.516,2.328a1.818,1.818,0,0,1-1.764,1.98,1.8,1.8,0,0,1-1.752-1.956,1.8,1.8,0,0,1,1.752-1.956A1.775,1.775,0,0,1,157.848,9.652ZM160.788,13h1.68V4.12h-1.68Zm2.9-3.348a3.155,3.155,0,0,0,3.024,3.456,2.622,2.622,0,0,0,2.208-1.08V13h1.692V6.352h-1.692V7.3a2.629,2.629,0,0,0-2.2-1.056A3.113,3.113,0,0,0,163.692,9.652Zm5.232.024a1.79,1.79,0,0,1-1.764,1.956,1.817,1.817,0,0,1-1.752-1.98,1.767,1.767,0,1,1,3.516.024Zm2.9,0a3.189,3.189,0,0,0,3.288,3.432,3.032,3.032,0,0,0,3.132-2.352h-1.812a1.268,1.268,0,0,1-1.332.912c-.936,0-1.56-.7-1.56-1.992s.624-2,1.56-2a1.306,1.306,0,0,1,1.332.924h1.812a2.966,2.966,0,0,0-3.132-2.352A3.189,3.189,0,0,0,171.828,9.676ZM179.484,13h1.68V10.168L183.42,13H185.6l-2.952-3.312,2.928-3.336H183.4l-2.232,2.82V4.12h-1.68Zm9.072-5.82a1.033,1.033,0,1,0-1.02.984A.982.982,0,0,0,188.556,7.18Zm-2.436,7.548h1.092l1.488-3.576h-1.776Z" transform="translate(442 198)" fill="#2c3a41"/>
      <path id="Path_514" data-name="Path 514" d="M2.592,12.1a.982.982,0,0,0-1.02-.984.986.986,0,1,0,0,1.968A.982.982,0,0,0,2.592,12.1Zm0-4.968a.982.982,0,0,0-1.02-.984.986.986,0,1,0,0,1.968A.982.982,0,0,0,2.592,7.132ZM5.664,9.688c0-1.284.6-1.668,1.6-1.668H7.7V6.256a2.306,2.306,0,0,0-2.04,1.128V6.352H3.984V13h1.68Zm9.588-.012a3.285,3.285,0,0,0-3.42-3.432,3.285,3.285,0,0,0-3.42,3.432,3.254,3.254,0,0,0,3.372,3.432A3.324,3.324,0,0,0,15.252,9.676Zm-5.136,0a1.722,1.722,0,1,1,3.408,0,1.77,1.77,0,0,1-1.74,1.968C10.884,11.644,10.116,11,10.116,9.676Zm12.792,0a3.285,3.285,0,0,0-3.42-3.432,3.285,3.285,0,0,0-3.42,3.432,3.254,3.254,0,0,0,3.372,3.432A3.324,3.324,0,0,0,22.908,9.676Zm-5.136,0a1.722,1.722,0,1,1,3.408,0,1.77,1.77,0,0,1-1.74,1.968C18.54,11.644,17.772,11,17.772,9.676Zm6.636,1.26c0,1.524.852,2.064,2.124,2.064h1.056V11.584h-.78c-.528,0-.708-.192-.708-.636V7.732h1.488V6.352H26.1V4.708H24.408V6.352h-.792v1.38h.792Zm8.9-.624c0,.828-.228,2.136-.228,3.1a1.869,1.869,0,0,0,2.04,1.98h.828V13.96h-.5c-.5,0-.744-.216-.744-.708,0-.744.2-2.064.2-3a1.481,1.481,0,0,0-1.26-1.608V8.62a1.47,1.47,0,0,0,1.26-1.6c0-.948-.2-2.256-.2-3.012,0-.48.24-.708.744-.708h.5V1.888h-.828a1.869,1.869,0,0,0-2.04,1.98c0,.96.228,2.256.228,3.1,0,.588-.384.948-1.164,1.02V9.292C32.928,9.352,33.312,9.724,33.312,10.312Z" transform="translate(422 181)" fill="#2c3a41" opacity="0.5"/>
      <path id="Path_515" data-name="Path 515" d="M3.612,10.312c0,.828.228,2.136.228,3.1a1.869,1.869,0,0,1-2.04,1.98H.972V13.96h.5c.5,0,.744-.216.744-.708,0-.744-.2-2.064-.2-3a1.481,1.481,0,0,1,1.26-1.608V8.62a1.47,1.47,0,0,1-1.26-1.6c0-.948.2-2.256.2-3.012,0-.48-.24-.708-.744-.708h-.5V1.888H1.8a1.869,1.869,0,0,1,2.04,1.98c0,.96-.228,2.256-.228,3.1,0,.588.384.948,1.164,1.02V9.292C4,9.352,3.612,9.724,3.612,10.312Z" transform="translate(422 240)" fill="#2c3a41" opacity="0.5"/>
      <path id="Path_513" data-name="Path 513" d="M.852,9.424H5.94V8.008H.852Zm7,0h5.088V8.008H7.848ZM15,13h1.7V7.732h1.164V6.352H16.7V6.076c0-.744.276-1.008,1.092-.984V3.676c-1.872-.048-2.8.708-2.8,2.34v.336h-.756v1.38H15Zm13.26,0h1.68V9.1a2.586,2.586,0,0,0-2.724-2.844,2.632,2.632,0,0,0-2.28,1.272A2.545,2.545,0,0,0,22.6,6.256a2.421,2.421,0,0,0-1.956.9v-.8H18.96V13h1.68V9.328a1.492,1.492,0,1,1,2.976,0V13H25.3V9.328a1.487,1.487,0,1,1,2.964,0Zm3.3-3.576h5.088V8.008H31.56Zm7,0h5.088V8.008H38.556Zm6.54.252a3.189,3.189,0,0,0,3.288,3.432,3.032,3.032,0,0,0,3.132-2.352H49.7a1.268,1.268,0,0,1-1.332.912c-.936,0-1.56-.7-1.56-1.992s.624-2,1.56-2A1.306,1.306,0,0,1,49.7,8.6h1.812a2.966,2.966,0,0,0-3.132-2.352A3.189,3.189,0,0,0,45.1,9.676Zm14.076,0a3.42,3.42,0,1,0-6.84,0A3.254,3.254,0,0,0,55.7,13.108,3.324,3.324,0,0,0,59.172,9.676Zm-5.136,0a1.722,1.722,0,1,1,3.408,0,1.77,1.77,0,0,1-1.74,1.968C54.8,11.644,54.036,11,54.036,9.676ZM60.408,13h1.68V4.12h-1.68Zm9.756-3.324a3.42,3.42,0,1,0-6.84,0A3.254,3.254,0,0,0,66.7,13.108,3.324,3.324,0,0,0,70.164,9.676Zm-5.136,0a1.722,1.722,0,1,1,3.408,0,1.77,1.77,0,0,1-1.74,1.968C65.8,11.644,65.028,11,65.028,9.676Zm8.052.012c0-1.284.6-1.668,1.6-1.668h.444V6.256a2.306,2.306,0,0,0-2.04,1.128V6.352H71.4V13h1.68Zm3.192-.264H81.36V8.008H76.272Zm8.652-2.1V4.12h-1.68V13h1.68v-.948a2.618,2.618,0,0,0,2.2,1.056,3.149,3.149,0,0,0,3.036-3.456A3.106,3.106,0,0,0,87.12,6.244,2.59,2.59,0,0,0,84.924,7.324ZM88.44,9.652a1.818,1.818,0,0,1-1.764,1.98,1.8,1.8,0,0,1-1.752-1.956A1.8,1.8,0,0,1,86.676,7.72,1.775,1.775,0,0,1,88.44,9.652Zm9.216-3.3H95.964v3.66c0,1.068-.576,1.644-1.488,1.644A1.438,1.438,0,0,1,93,10.012V6.352H91.32v3.9a2.562,2.562,0,0,0,2.664,2.832,2.452,2.452,0,0,0,1.98-.924V13h1.692Zm1.92,4.584c0,1.524.852,2.064,2.124,2.064h1.056V11.584h-.78c-.528,0-.708-.192-.708-.636V7.732h1.488V6.352h-1.488V4.708H99.576V6.352h-.792v1.38h.792Zm4.656,0c0,1.524.852,2.064,2.124,2.064h1.056V11.584h-.78c-.528,0-.708-.192-.708-.636V7.732h1.488V6.352h-1.488V4.708h-1.692V6.352h-.792v1.38h.792Zm10.812-1.26a3.42,3.42,0,1,0-6.84,0,3.254,3.254,0,0,0,3.372,3.432A3.324,3.324,0,0,0,115.044,9.676Zm-5.136,0a1.722,1.722,0,1,1,3.408,0,1.77,1.77,0,0,1-1.74,1.968C110.676,11.644,109.908,11,109.908,9.676ZM120.936,13h1.68V9.1a2.557,2.557,0,0,0-2.652-2.844,2.483,2.483,0,0,0-2,.924V6.352h-1.68V13h1.68V9.328a1.5,1.5,0,1,1,2.976,0Zm3.3-3.576h5.088V8.008h-5.088ZM131.976,13H133.7V4.252h-2.892V5.8h1.164Zm3.384-4.488c0,2.556.768,4.464,3.24,4.464s3.24-1.908,3.24-4.464c0-2.532-.768-4.428-3.24-4.428S135.36,5.98,135.36,8.512Zm4.824,0c0,1.56-.168,2.9-1.584,2.9s-1.584-1.344-1.584-2.9c0-1.5.168-2.868,1.584-2.868S140.184,7.012,140.184,8.512Zm4.884,3.588a1.033,1.033,0,1,0-1.02.984A.982.982,0,0,0,145.068,12.1Zm0-4.968a1.033,1.033,0,1,0-1.02.984A.982.982,0,0,0,145.068,7.132ZM150.528,13h1.824l1.212-4.644L154.776,13h1.812l1.944-6.648h-1.608L155.748,11.4,154.5,6.352h-1.776l-1.272,5.064-1.176-5.064h-1.7Zm8.916,0h1.68V9.328a1.5,1.5,0,1,1,2.976,0V13h1.68V9.1a2.651,2.651,0,0,0-4.656-1.92V4.12h-1.68Zm7.932,0h1.68V6.352h-1.68Zm.852-7.44a.985.985,0,1,0-1.032-.984A.992.992,0,0,0,168.228,5.56Zm2.748,5.376c0,1.524.852,2.064,2.124,2.064h1.056V11.584h-.78c-.528,0-.708-.192-.708-.636V7.732h1.488V6.352h-1.488V4.708h-1.692V6.352h-.792v1.38h.792Zm7.248-3.312a1.477,1.477,0,0,1,1.584,1.428h-3.156A1.544,1.544,0,0,1,178.224,7.624Zm3.156,3.288h-1.812a1.37,1.37,0,0,1-1.332.8,1.555,1.555,0,0,1-1.6-1.536h4.86a3.927,3.927,0,0,0,.048-.648,3.121,3.121,0,0,0-3.276-3.288,3.194,3.194,0,0,0-3.336,3.432,3.22,3.22,0,0,0,3.336,3.432A3.09,3.09,0,0,0,181.38,10.912Zm3.456-3.732a1.033,1.033,0,1,0-1.02.984A.982.982,0,0,0,184.836,7.18ZM182.4,14.728h1.092l1.488-3.576H183.2Z" transform="translate(442 223)" fill="#2c3a41"/>
    </g>
    <path id="Path_516" data-name="Path 516" d="M9.933,7.74q-3.526,0-3.526-3.655V-6.966a3.81,3.81,0,0,0-.774-2.645,3.768,3.768,0,0,0-2.752-.882.757.757,0,0,1-.58-.258.813.813,0,0,1-.237-.559A.789.789,0,0,1,2.3-11.89a.789.789,0,0,1,.58-.236,3.768,3.768,0,0,0,2.752-.882,3.81,3.81,0,0,0,.774-2.645V-26.66q0-3.655,3.526-3.655H12.9a.912.912,0,0,1,.6.215.693.693,0,0,1,.258.559.757.757,0,0,1-.258.58.863.863,0,0,1-.6.237H10.148a1.73,1.73,0,0,0-1.935,1.978v11.223a4.7,4.7,0,0,1-.8,2.8,3.455,3.455,0,0,1-2.086,1.419A3.455,3.455,0,0,1,7.418-9.89a4.7,4.7,0,0,1,.8,2.8V4.171a1.73,1.73,0,0,0,1.935,1.978H12.9a.863.863,0,0,1,.6.237.757.757,0,0,1,.258.58A.714.714,0,0,1,13.5,7.5a.863.863,0,0,1-.6.237Z" transform="translate(389 232)" fill="#2c3a41"/>
  </g>
</svg>
