<svg width="220" height="71" viewBox="0 0 220 71" fill="none" xmlns="http://www.w3.org/2000/svg">
<g clip-path="url(#clip0_15_363)">
<path d="M61.111 70.8411C58.3618 70.877 55.6515 70.1894 53.252 68.8471C50.927 67.5597 49.0147 65.6394 47.737 63.3091C46.3828 60.753 45.705 57.893 45.768 55.0011C45.7212 52.1041 46.4166 49.2433 47.788 46.6911C49.1358 44.3625 51.0763 42.4324 53.412 41.0971C55.8466 39.7971 58.5692 39.1307 61.329 39.1591C64.0888 39.1307 66.8114 39.7971 69.246 41.0971C71.5935 42.417 73.5376 44.3507 74.87 46.6911C76.2659 49.2328 76.9629 52.0992 76.89 54.9981C76.945 57.9018 76.229 60.7683 74.815 63.3051C73.4606 65.6326 71.4976 67.5472 69.137 68.8431C66.6779 70.188 63.9136 70.8762 61.111 70.8411ZM61.111 64.0841C62.4916 64.0892 63.8485 63.7261 65.042 63.0321C66.2935 62.3341 67.3029 61.2716 67.936 59.9861C68.6925 58.4357 69.067 56.7267 69.028 55.0021C69.178 52.5457 68.3762 50.1258 66.789 48.2451C66.0714 47.4942 65.2062 46.8999 64.2478 46.4996C63.2894 46.0993 62.2585 45.9017 61.22 45.9191C60.1969 45.8969 59.1809 46.0928 58.2394 46.4939C57.298 46.8949 56.4528 47.4919 55.76 48.2451C54.1728 50.1258 53.371 52.5457 53.521 55.0021C53.521 57.9371 54.231 60.1531 55.705 61.7021C56.3724 62.476 57.2039 63.0914 58.1391 63.5034C59.0742 63.9155 60.0895 64.1138 61.111 64.0841Z" fill="#333333"/>
<path d="M90.158 44.423C91.1165 42.8498 92.4481 41.5374 94.035 40.602C95.676 39.6545 97.5456 39.1754 99.44 39.217V47.358H97.42C95.02 47.358 93.22 47.912 92.015 49.075C90.759 50.238 90.159 52.232 90.159 55.056V70.342H82.514V39.66H90.158V44.423Z" fill="#333333"/>
<path d="M142.138 39.217C143.794 39.1513 145.446 39.4218 146.994 40.012C148.542 40.6021 149.955 41.4999 151.147 42.651C153.386 44.977 154.532 48.189 154.532 52.343V70.343H146.884V53.395C147.017 51.3864 146.373 49.4034 145.084 47.857C144.445 47.2135 143.676 46.7129 142.829 46.3883C141.982 46.0637 141.076 45.9225 140.17 45.974C139.257 45.9276 138.343 46.0709 137.488 46.395C136.633 46.7191 135.854 47.2169 135.201 47.857C133.912 49.4034 133.268 51.3864 133.401 53.395V70.342H125.758V53.395C125.891 51.3864 125.247 49.4034 123.958 47.857C123.319 47.2135 122.55 46.7129 121.703 46.3883C120.856 46.0637 119.95 45.9225 119.044 45.974C118.13 45.9174 117.214 46.056 116.357 46.3807C115.5 46.7054 114.722 47.2086 114.075 47.857C113.416 48.6125 112.913 49.4907 112.595 50.441C112.276 51.3913 112.149 52.3952 112.219 53.395V70.342H104.573V39.66H112.217V43.371C113.22 42.0555 114.533 41.009 116.039 40.325C117.628 39.5823 119.363 39.2038 121.117 39.217C123.32 39.1816 125.498 39.6972 127.451 40.717C129.275 41.7359 130.77 43.2526 131.764 45.09C132.762 43.284 134.26 41.8037 136.077 40.826C137.921 39.7667 140.011 39.2118 142.138 39.217Z" fill="#333333"/>
<path d="M165.672 36.006C165.055 36.0277 164.44 35.9207 163.867 35.6919C163.293 35.4631 162.774 35.1175 162.341 34.677C161.894 34.2731 161.54 33.7765 161.304 33.2217C161.068 32.667 160.956 32.0675 160.976 31.465C160.956 30.8626 161.068 30.2631 161.304 29.7083C161.54 29.1535 161.894 28.6569 162.341 28.253C162.774 27.8125 163.293 27.4669 163.867 27.2381C164.44 27.0093 165.055 26.9023 165.672 26.924C166.297 26.9074 166.918 27.0165 167.499 27.2448C168.081 27.4732 168.611 27.816 169.057 28.253C169.487 28.6677 169.825 29.1676 170.051 29.7207C170.277 30.2738 170.384 30.8679 170.367 31.465C170.384 32.0621 170.277 32.6562 170.051 33.2093C169.825 33.7624 169.487 34.2623 169.057 34.677C168.611 35.114 168.081 35.4569 167.499 35.6852C166.918 35.9135 166.297 36.0226 165.672 36.006ZM169.439 39.661V70.343H161.795V39.661H169.439Z" fill="#333333"/>
<path d="M184.618 29.359H176.974V70.342H184.618V29.359Z" fill="#333333"/>
<path d="M210.064 70.342L199.797 57.272V70.342H192.153V29.363H199.797V52.679L209.953 39.663H219.89L206.564 55.056L219.999 70.342H210.064Z" fill="#333333"/>
<path d="M3.492 69.842C8.12265 69.8418 12.5635 68.0023 15.838 64.728C17.4593 63.1067 18.7455 61.182 19.623 59.0636C20.5005 56.9453 20.952 54.6749 20.952 52.382V69.842H3.492ZM20.952 36.667H34.919V55.874C34.9189 59.5782 33.4474 63.1307 30.8281 65.75C29.5312 67.047 27.9915 68.0759 26.2969 68.7778C24.6024 69.4797 22.7861 69.841 20.952 69.841V36.667Z" fill="#02D365"/>
<path d="M6.984 62.857C10.8412 62.857 13.968 59.7302 13.968 55.873C13.968 52.0159 10.8412 48.889 6.984 48.889C3.12684 48.889 0 52.0159 0 55.873C0 59.7302 3.12684 62.857 6.984 62.857Z" fill="#02D365"/>
<path fill-rule="evenodd" clip-rule="evenodd" d="M36.666 36.667H20.952V52.381C20.9519 50.3174 21.3583 48.2739 22.1479 46.3674C22.9376 44.4608 24.0951 42.7285 25.5543 41.2693C27.0135 39.8101 28.7458 38.6526 30.6524 37.8629C32.559 37.0733 34.6024 36.6669 36.666 36.667ZM52.381 20.952H36.666C34.6024 20.9519 32.559 21.3583 30.6524 22.1479C28.7458 22.9376 27.0135 24.0951 25.5543 25.5543C24.0951 27.0135 22.9376 28.7458 22.1479 30.6524C21.3583 32.5589 20.9519 34.6024 20.952 36.666H36.667C38.7307 36.6661 40.7741 36.2598 42.6807 35.4701C44.5872 34.6805 46.3196 33.523 47.7788 32.0638C49.238 30.6046 50.3955 28.8722 51.1851 26.9657C51.9748 25.0591 52.3812 23.0157 52.381 20.952Z" fill="#333333"/>
<path fill-rule="evenodd" clip-rule="evenodd" d="M17.46 17.46V34.92C17.46 30.2893 19.2996 25.8483 22.5739 22.5739C25.8483 19.2995 30.2893 17.46 34.92 17.46C37.213 17.4601 39.4835 17.0086 41.602 16.1312C43.7204 15.2538 45.6453 13.9678 47.2668 12.3464C48.8882 10.7251 50.1744 8.80029 51.0519 6.68188C51.9294 4.56347 52.381 2.29296 52.381 0H34.92C30.2893 0 25.8483 1.83954 22.5739 5.11392C19.2996 8.38831 17.46 12.8293 17.46 17.46Z" fill="#333333"/>
</g>
<defs>
<clipPath id="clip0_15_363">
<rect width="220" height="70.841" fill="white"/>
</clipPath>
</defs>
</svg>
