<svg xmlns="http://www.w3.org/2000/svg" width="220" height="70.841" viewBox="0 0 220 70.841"><g transform="translate(45.768 26.922)"><g transform="translate(0 12.24)"><path d="M20.659-56.35A15.678,15.678,0,0,1,12.8-58.344a14.053,14.053,0,0,1-5.515-5.538A16.957,16.957,0,0,1,5.316-72.19,16.977,16.977,0,0,1,7.336-80.5a15.235,15.235,0,0,1,5.624-5.594,16.449,16.449,0,0,1,7.917-1.938,16.449,16.449,0,0,1,7.917,1.938A14.842,14.842,0,0,1,34.418-80.5a16.4,16.4,0,0,1,2.02,8.307,16.423,16.423,0,0,1-2.075,8.307,14.822,14.822,0,0,1-5.678,5.538A16.3,16.3,0,0,1,20.659-56.35Zm0-6.757a7.762,7.762,0,0,0,3.931-1.052,7.058,7.058,0,0,0,2.894-3.046,10.808,10.808,0,0,0,1.092-4.984,9.572,9.572,0,0,0-2.239-6.757,7.529,7.529,0,0,0-5.569-2.326,7.206,7.206,0,0,0-5.46,2.326,9.572,9.572,0,0,0-2.239,6.757c0,2.935.71,5.151,2.184,6.7A6.874,6.874,0,0,0,20.659-63.107Z" transform="translate(-5.316 88.029)" fill="#333"/></g><g transform="translate(36.746 12.295)"><path d="M18.433-82.667a11.2,11.2,0,0,1,3.877-3.821,10.356,10.356,0,0,1,5.405-1.385v8.141h-2.02c-2.4,0-4.2.554-5.405,1.717-1.256,1.163-1.856,3.157-1.856,5.981v15.286H10.789V-87.43h7.644Z" transform="translate(-10.789 87.873)" fill="#333"/></g><g transform="translate(58.805 12.295)"><path d="M48.354-87.873a12.268,12.268,0,0,1,9.009,3.434c2.239,2.326,3.385,5.538,3.385,9.692v18H53.1V-73.695a7.838,7.838,0,0,0-1.8-5.538,6.413,6.413,0,0,0-4.914-1.883,6.619,6.619,0,0,0-4.969,1.883,7.838,7.838,0,0,0-1.8,5.538v16.947H31.974V-73.695a7.838,7.838,0,0,0-1.8-5.538,6.413,6.413,0,0,0-4.914-1.883,6.457,6.457,0,0,0-4.969,1.883,7.614,7.614,0,0,0-1.856,5.538v16.947H10.789V-87.43h7.644v3.711a10.009,10.009,0,0,1,3.822-3.046,11.783,11.783,0,0,1,5.078-1.108,13.226,13.226,0,0,1,6.334,1.5A11.006,11.006,0,0,1,37.98-82a10.745,10.745,0,0,1,4.313-4.264A12.107,12.107,0,0,1,48.354-87.873Z" transform="translate(-10.789 87.873)" fill="#333"/></g><g transform="translate(115.208)"><path d="M13.139-113.5a4.45,4.45,0,0,1-3.331-1.329,4.144,4.144,0,0,1-1.365-3.212,4.144,4.144,0,0,1,1.365-3.212,4.45,4.45,0,0,1,3.331-1.329,4.662,4.662,0,0,1,3.385,1.329,4.291,4.291,0,0,1,1.31,3.212,4.291,4.291,0,0,1-1.31,3.212A4.662,4.662,0,0,1,13.139-113.5Zm3.767,3.655v30.682H9.262v-30.682Z" transform="translate(-8.443 122.584)" fill="#333"/></g><g transform="translate(131.206 2.437)"><rect width="7.644" height="40.983" transform="translate(0)" fill="#333"/></g><g transform="translate(146.385 2.437)"><path d="M28.7-74.721,18.433-87.791v13.07H10.789V-115.7h7.644v23.316L28.589-105.4h9.937L25.2-90.007,38.635-74.721Z" transform="translate(-10.789 115.704)" fill="#333"/></g></g><path d="M-1986,474.175a17.461,17.461,0,0,0,12.346-5.114,17.459,17.459,0,0,0,5.114-12.346v17.46ZM-1968.54,441h13.967v19.207a13.967,13.967,0,0,1-4.091,9.876,13.966,13.966,0,0,1-9.876,4.091Z" transform="translate(1989.492 -404.333)" fill="#02d365"/><circle cx="6.984" cy="6.984" r="6.984" transform="translate(0 48.889)" fill="#02d365"/><path d="M145.714,275.715H130v15.714a15.713,15.713,0,0,1,15.714-15.714ZM161.429,260H145.714A15.713,15.713,0,0,0,130,275.714h15.715A15.713,15.713,0,0,0,161.429,260Z" transform="translate(-109.048 -239.048)" fill="#333" fill-rule="evenodd"/><path d="M120,217.46v17.46a17.46,17.46,0,0,1,17.46-17.46h0A17.46,17.46,0,0,0,154.921,200H137.46A17.46,17.46,0,0,0,120,217.46Z" transform="translate(-102.54 -200)" fill="#333" fill-rule="evenodd"/></svg>