<svg xmlns="http://www.w3.org/2000/svg" width="320" height="101.588" viewBox="0 0 320 101.588"><g transform="translate(-150 -250)"><g transform="translate(216.572 288.607)"><g transform="translate(0 17.552)"><path d="M27.633-42.6A23.061,23.061,0,0,1,16.2-45.46,20.3,20.3,0,0,1,8.175-53.4,24.04,24.04,0,0,1,5.316-65.315,24.07,24.07,0,0,1,8.255-77.228a22.009,22.009,0,0,1,8.18-8.021,24.2,24.2,0,0,1,11.516-2.78,24.2,24.2,0,0,1,11.516,2.78,21.442,21.442,0,0,1,8.18,8.021,23.255,23.255,0,0,1,2.939,11.913A23.29,23.29,0,0,1,47.567-53.4a21.422,21.422,0,0,1-8.26,7.942A23.977,23.977,0,0,1,27.633-42.6Zm0-9.689A11.415,11.415,0,0,0,33.351-53.8a10.185,10.185,0,0,0,4.209-4.368,15.317,15.317,0,0,0,1.588-7.148c0-4.209-1.112-7.386-3.256-9.689a11.029,11.029,0,0,0-8.1-3.336A10.554,10.554,0,0,0,19.85-75c-2.144,2.3-3.256,5.48-3.256,9.689s1.032,7.386,3.177,9.61A10.063,10.063,0,0,0,27.633-52.29Z" transform="translate(-5.316 88.029)" fill="#333"/></g><g transform="translate(53.449 17.631)"><path d="M21.907-80.407a16.189,16.189,0,0,1,5.639-5.48,15.231,15.231,0,0,1,7.863-1.985V-76.2H32.47c-3.494,0-6.115.794-7.863,2.462-1.827,1.668-2.7,4.527-2.7,8.577v21.92H10.789v-44H21.907Z" transform="translate(-10.789 87.873)" fill="#333"/></g><g transform="translate(85.535 17.631)"><path d="M65.429-87.873c5.4,0,9.769,1.668,13.1,4.924,3.256,3.336,4.924,7.942,4.924,13.9v25.811H72.339v-24.3c0-3.415-.874-6.115-2.621-7.942a9.4,9.4,0,0,0-7.148-2.7,9.7,9.7,0,0,0-7.227,2.7c-1.747,1.827-2.621,4.527-2.621,7.942v24.3H41.6v-24.3c0-3.415-.874-6.115-2.621-7.942a9.4,9.4,0,0,0-7.148-2.7,9.465,9.465,0,0,0-7.227,2.7c-1.827,1.827-2.7,4.527-2.7,7.942v24.3H10.789v-44H21.907v5.321a14.524,14.524,0,0,1,5.559-4.368,17.345,17.345,0,0,1,7.386-1.588,19.462,19.462,0,0,1,9.213,2.144,15.893,15.893,0,0,1,6.274,6.274,15.524,15.524,0,0,1,6.274-6.115A17.805,17.805,0,0,1,65.429-87.873Z" transform="translate(-10.789 87.873)" fill="#333"/></g><g transform="translate(167.576 0)"><path d="M15.273-109.559a6.522,6.522,0,0,1-4.845-1.906,5.9,5.9,0,0,1-1.985-4.606,5.9,5.9,0,0,1,1.985-4.606,6.522,6.522,0,0,1,4.845-1.906,6.833,6.833,0,0,1,4.924,1.906,6.11,6.11,0,0,1,1.906,4.606,6.11,6.11,0,0,1-1.906,4.606A6.833,6.833,0,0,1,15.273-109.559Zm5.48,5.242v44H9.635v-44Z" transform="translate(-8.443 122.584)" fill="#333"/></g><g transform="translate(190.845 3.494)"><rect width="11.119" height="58.77" transform="translate(0 0)" fill="#333"/></g><g transform="translate(212.924 3.494)"><path d="M36.838-56.934,21.907-75.677v18.743H10.789V-115.7H21.907v33.436l14.772-18.664H51.134L31.755-78.854l19.537,21.92Z" transform="translate(-10.789 115.704)" fill="#333"/></g></g><g transform="translate(150 250)"><path d="M-1986,489.254a25.4,25.4,0,0,0,17.958-7.439,25.4,25.4,0,0,0,7.438-17.957v25.4ZM-1960.6,441h20.315v27.937a20.316,20.316,0,0,1-5.95,14.365,20.315,20.315,0,0,1-14.365,5.95Z" transform="translate(1991.08 -387.667)" fill="#02d365"/><circle cx="10.159" cy="10.159" r="10.159" transform="translate(0 71.111)" fill="#02d365"/><path d="M152.856,282.858H130v22.856a22.856,22.856,0,0,1,22.856-22.856ZM175.714,260H152.856A22.856,22.856,0,0,0,130,282.856h22.858A22.856,22.856,0,0,0,175.714,260Z" transform="translate(-99.524 -229.524)" fill="#333" fill-rule="evenodd"/><path d="M120,225.4v25.4a25.4,25.4,0,0,1,25.4-25.4h0a25.4,25.4,0,0,0,25.4-25.4H145.4A25.4,25.4,0,0,0,120,225.4Z" transform="translate(-94.603 -200)" fill="#333" fill-rule="evenodd"/></g></g></svg>